<svg width="1930" height="1430" xmlns="http://www.w3.org/2000/svg" xmlns:xlink="http://www.w3.org/1999/xlink" overflow="hidden"><defs><clipPath id="clip0"><rect x="2314" y="1063" width="1930" height="1430"/></clipPath><clipPath id="clip1"><rect x="2320" y="1065" width="1919" height="1425"/></clipPath><clipPath id="clip2"><rect x="2320" y="1065" width="1919" height="1425"/></clipPath><clipPath id="clip3"><rect x="2320" y="1065" width="1919" height="1425"/></clipPath><clipPath id="clip4"><rect x="2320" y="1065" width="1919" height="1425"/></clipPath><clipPath id="clip5"><rect x="2471" y="1352" width="1591" height="1027"/></clipPath><clipPath id="clip6"><rect x="2320" y="1065" width="1919" height="1425"/></clipPath><clipPath id="clip7"><rect x="2471" y="1352" width="1591" height="1027"/></clipPath><clipPath id="clip8"><rect x="2320" y="1065" width="1919" height="1425"/></clipPath><clipPath id="clip9"><rect x="2471" y="1352" width="1591" height="1027"/></clipPath><clipPath id="clip10"><rect x="2320" y="1065" width="1919" height="1425"/></clipPath><clipPath id="clip11"><rect x="2471" y="1352" width="1591" height="1027"/></clipPath><clipPath id="clip12"><rect x="2320" y="1065" width="1919" height="1425"/></clipPath><clipPath id="clip13"><rect x="2471" y="1352" width="1591" height="1027"/></clipPath><clipPath id="clip14"><rect x="2320" y="1065" width="1919" height="1425"/></clipPath><clipPath id="clip15"><rect x="2320" y="1065" width="1919" height="1425"/></clipPath><clipPath id="clip16"><rect x="2320" y="1065" width="1919" height="1425"/></clipPath><clipPath id="clip17"><rect x="2320" y="1065" width="1919" height="1425"/></clipPath><clipPath id="clip18"><rect x="2320" y="1065" width="1919" height="1425"/></clipPath><clipPath id="clip19"><rect x="2320" y="1065" width="1919" height="1425"/></clipPath><clipPath id="clip20"><rect x="2320" y="1065" width="1919" height="1425"/></clipPath><clipPath id="clip21"><rect x="2320" y="1065" width="1919" height="1425"/></clipPath><clipPath id="clip22"><rect x="2320" y="1065" width="1919" height="1425"/></clipPath><clipPath id="clip23"><rect x="2320" y="1065" width="1919" height="1425"/></clipPath><clipPath id="clip24"><rect x="2320" y="1065" width="1919" height="1425"/></clipPath><clipPath id="clip25"><rect x="2320" y="1065" width="1919" height="1425"/></clipPath><clipPath id="clip26"><rect x="2320" y="1065" width="1919" height="1425"/></clipPath><clipPath id="clip27"><rect x="2320" y="1065" width="1919" height="1425"/></clipPath><clipPath id="clip28"><rect x="2320" y="1065" width="1919" height="1425"/></clipPath><clipPath id="clip29"><rect x="2320" y="1065" width="1919" height="1425"/></clipPath><clipPath id="clip30"><rect x="2320" y="1065" width="1919" height="1425"/></clipPath><clipPath id="clip31"><rect x="2320" y="1065" width="1919" height="1425"/></clipPath><clipPath id="clip32"><rect x="2320" y="1065" width="1919" height="1425"/></clipPath><clipPath id="clip33"><rect x="2320" y="1065" width="1919" height="1425"/></clipPath><clipPath id="clip34"><rect x="2320" y="1065" width="1919" height="1425"/></clipPath><clipPath id="clip35"><rect x="2320" y="1065" width="1919" height="1425"/></clipPath><clipPath id="clip36"><rect x="2320" y="1065" width="1919" height="1425"/></clipPath><clipPath id="clip37"><rect x="2320" y="1065" width="1919" height="1425"/></clipPath><clipPath id="clip38"><rect x="2320" y="1065" width="1919" height="1425"/></clipPath><clipPath id="clip39"><rect x="2320" y="1065" width="1919" height="1425"/></clipPath><clipPath id="clip40"><rect x="2320" y="1065" width="1919" height="1425"/></clipPath><clipPath id="clip41"><rect x="2320" y="1065" width="1919" height="1425"/></clipPath><clipPath id="clip42"><rect x="2320" y="1065" width="1919" height="1425"/></clipPath><clipPath id="clip43"><rect x="2320" y="1065" width="1919" height="1425"/></clipPath><clipPath id="clip44"><rect x="2320" y="1065" width="1919" height="1425"/></clipPath><clipPath id="clip45"><rect x="2320" y="1065" width="1919" height="1425"/></clipPath><clipPath id="clip46"><rect x="2320" y="1065" width="1919" height="1425"/></clipPath><clipPath id="clip47"><rect x="2320" y="1065" width="1919" height="1425"/></clipPath><clipPath id="clip48"><rect x="2320" y="1065" width="1919" height="1425"/></clipPath><clipPath id="clip49"><rect x="2320" y="1065" width="1919" height="1425"/></clipPath><clipPath id="clip50"><rect x="2320" y="1065" width="1919" height="1425"/></clipPath></defs><g clip-path="url(#clip0)" transform="translate(-2314 -1063)"><rect x="2320" y="1066" width="1920" height="1424" fill="#FFFFFF" fill-opacity="1"/><g clip-path="url(#clip1)"><path d="M2471.5 2375.5 4059.5 2375.5M2471.5 2170.57 4059.5 2170.57M2471.5 1761.56 4059.5 1761.56M2471.5 1556.55 4059.5 1556.55M2471.5 1352.5 4059.5 1352.5" stroke="#D9D9D9" stroke-width="3.4375" stroke-linecap="butt" stroke-linejoin="round" stroke-miterlimit="10" stroke-opacity="1" fill="none" fill-rule="nonzero"/></g><g clip-path="url(#clip2)"><path d="M2648.59 1352.5 2648.59 2375.5M2824.59 1352.5 2824.59 2375.5M3000.6 1352.5 3000.6 2375.5M3177.6 1352.5 3177.6 2375.5M3353.61 1352.5 3353.61 2375.5M3530.62 1352.5 3530.62 2375.5M3706.62 1352.5 3706.62 2375.5M3882.63 1352.5 3882.63 2375.5M4059.5 1352.5 4059.5 2375.5" stroke="#D9D9D9" stroke-width="3.4375" stroke-linecap="butt" stroke-linejoin="round" stroke-miterlimit="10" stroke-opacity="1" fill="none" fill-rule="nonzero"/></g><g clip-path="url(#clip3)"><path d="M0 0 0.000360892 1023" stroke="#D9D9D9" stroke-width="3.4375" stroke-linecap="butt" stroke-linejoin="round" stroke-miterlimit="10" stroke-opacity="1" fill="none" fill-rule="evenodd" transform="matrix(1 0 0 -1 2471.5 2375.5)"/></g><g clip-path="url(#clip4)"><path d="M2471.5 1966.5 4059.5 1966.5" stroke="#D9D9D9" stroke-width="3.4375" stroke-linecap="butt" stroke-linejoin="round" stroke-miterlimit="10" stroke-opacity="1" fill="none" fill-rule="evenodd"/></g><g clip-path="url(#clip5)"><path d="M2648 2278 2825.09 2376 3177.1 2376 3883 2376" stroke="#4472C4" stroke-width="8.02083" stroke-linecap="round" stroke-linejoin="round" stroke-miterlimit="10" stroke-opacity="1" fill="none" fill-rule="nonzero"/></g><g clip-path="url(#clip6)"><path d="M2648.97 2264.36 2661.97 2277.36 2648.97 2290.35 2635.97 2277.36Z" stroke="#4472C4" stroke-width="3.4375" stroke-linecap="butt" stroke-linejoin="round" stroke-miterlimit="10" stroke-opacity="1" fill="#4472C4" fill-rule="nonzero" fill-opacity="1"/><path d="M2824.97 2362.36 2837.97 2375.36 2824.97 2388.35 2811.97 2375.36Z" stroke="#4472C4" stroke-width="3.4375" stroke-linecap="butt" stroke-linejoin="round" stroke-miterlimit="10" stroke-opacity="1" fill="#4472C4" fill-rule="nonzero" fill-opacity="1"/><path d="M3177.97 2362.36 3190.97 2375.36 3177.97 2388.35 3164.97 2375.36Z" stroke="#4472C4" stroke-width="3.4375" stroke-linecap="butt" stroke-linejoin="round" stroke-miterlimit="10" stroke-opacity="1" fill="#4472C4" fill-rule="nonzero" fill-opacity="1"/><path d="M3883.97 2362.36 3896.97 2375.36 3883.97 2388.35 3870.97 2375.36Z" stroke="#4472C4" stroke-width="3.4375" stroke-linecap="butt" stroke-linejoin="round" stroke-miterlimit="10" stroke-opacity="1" fill="#4472C4" fill-rule="nonzero" fill-opacity="1"/></g><g clip-path="url(#clip7)"><path d="M2648 2048 2825.09 2109.07 3177.1 2171.07 3883 2216" stroke="#ED7D31" stroke-width="8.02083" stroke-linecap="round" stroke-linejoin="round" stroke-miterlimit="10" stroke-opacity="1" fill="none" fill-rule="nonzero"/></g><g clip-path="url(#clip8)"><path d="M2634.97 2033.36 2660.97 2033.36 2660.97 2059.35 2634.97 2059.35Z" stroke="#ED7D31" stroke-width="3.4375" stroke-linecap="butt" stroke-linejoin="round" stroke-miterlimit="10" stroke-opacity="1" fill="#ED7D31" fill-rule="nonzero" fill-opacity="1"/><path d="M2810.97 2095.36 2836.97 2095.36 2836.97 2121.35 2810.97 2121.35Z" stroke="#ED7D31" stroke-width="3.4375" stroke-linecap="butt" stroke-linejoin="round" stroke-miterlimit="10" stroke-opacity="1" fill="#ED7D31" fill-rule="nonzero" fill-opacity="1"/><path d="M3163.97 2156.36 3189.97 2156.36 3189.97 2182.35 3163.97 2182.35Z" stroke="#ED7D31" stroke-width="3.4375" stroke-linecap="butt" stroke-linejoin="round" stroke-miterlimit="10" stroke-opacity="1" fill="#ED7D31" fill-rule="nonzero" fill-opacity="1"/><path d="M3869.97 2202.36 3895.97 2202.36 3895.97 2228.35 3869.97 2228.35Z" stroke="#ED7D31" stroke-width="3.4375" stroke-linecap="butt" stroke-linejoin="round" stroke-miterlimit="10" stroke-opacity="1" fill="#ED7D31" fill-rule="nonzero" fill-opacity="1"/></g><g clip-path="url(#clip9)"><path d="M2648 1842 2825.09 1902.06 3177.1 1964.06 3883 2018" stroke="#A5A5A5" stroke-width="8.02083" stroke-linecap="round" stroke-linejoin="round" stroke-miterlimit="10" stroke-opacity="1" fill="none" fill-rule="nonzero"/></g><g clip-path="url(#clip10)"><path d="M2648.97 1829.36 2661.97 1855.35 2635.97 1855.35Z" stroke="#A5A5A5" stroke-width="3.4375" stroke-linecap="butt" stroke-linejoin="round" stroke-miterlimit="10" stroke-opacity="1" fill="#A5A5A5" fill-rule="nonzero" fill-opacity="1"/><path d="M2824.97 1889.36 2837.97 1915.35 2811.97 1915.35Z" stroke="#A5A5A5" stroke-width="3.4375" stroke-linecap="butt" stroke-linejoin="round" stroke-miterlimit="10" stroke-opacity="1" fill="#A5A5A5" fill-rule="nonzero" fill-opacity="1"/><path d="M3177.97 1950.36 3190.97 1976.35 3164.97 1976.35Z" stroke="#A5A5A5" stroke-width="3.4375" stroke-linecap="butt" stroke-linejoin="round" stroke-miterlimit="10" stroke-opacity="1" fill="#A5A5A5" fill-rule="nonzero" fill-opacity="1"/><path d="M3883.97 2004.36 3896.97 2030.35 3870.97 2030.35Z" stroke="#A5A5A5" stroke-width="3.4375" stroke-linecap="butt" stroke-linejoin="round" stroke-miterlimit="10" stroke-opacity="1" fill="#A5A5A5" fill-rule="nonzero" fill-opacity="1"/></g><g clip-path="url(#clip11)"><path d="M2648 1609 2825.09 1671.05 3177.1 1732.06 3883 1789" stroke="#FFC000" stroke-width="8.02083" stroke-linecap="round" stroke-linejoin="round" stroke-miterlimit="10" stroke-opacity="1" fill="none" fill-rule="nonzero"/></g><g clip-path="url(#clip12)"><path d="M2662.47 1621.85 2635.47 1594.85M2635.47 1621.85 2662.47 1594.85" stroke="#FFC000" stroke-width="3.4375" stroke-linecap="butt" stroke-linejoin="round" stroke-miterlimit="10" stroke-opacity="1" fill="none" fill-rule="nonzero"/><path d="M2838.47 1683.85 2811.47 1656.86M2811.47 1683.85 2838.47 1656.86" stroke="#FFC000" stroke-width="3.4375" stroke-linecap="butt" stroke-linejoin="round" stroke-miterlimit="10" stroke-opacity="1" fill="none" fill-rule="nonzero"/><path d="M3191.47 1745.85 3164.47 1718.85M3164.47 1745.85 3191.47 1718.85" stroke="#FFC000" stroke-width="3.4375" stroke-linecap="butt" stroke-linejoin="round" stroke-miterlimit="10" stroke-opacity="1" fill="none" fill-rule="nonzero"/><path d="M3897.47 1802.85 3870.47 1775.86M3870.47 1802.85 3897.47 1775.86" stroke="#FFC000" stroke-width="3.4375" stroke-linecap="butt" stroke-linejoin="round" stroke-miterlimit="10" stroke-opacity="1" fill="none" fill-rule="nonzero"/></g><g clip-path="url(#clip13)"><path d="M2648 1399 2825.09 1461.05 3177.1 1521.05 3883 1578" stroke="#5B9BD5" stroke-width="8.02083" stroke-linecap="round" stroke-linejoin="round" stroke-miterlimit="10" stroke-opacity="1" fill="none" fill-rule="nonzero"/></g><g clip-path="url(#clip14)"><path d="M2662.47 1411.85 2635.47 1384.85M2648.97 1384.85 2648.97 1411.85M2635.47 1411.85 2662.47 1384.85" stroke="#5B9BD5" stroke-width="3.4375" stroke-linecap="butt" stroke-linejoin="round" stroke-miterlimit="10" stroke-opacity="1" fill="none" fill-rule="nonzero"/><path d="M2838.47 1473.85 2811.47 1446.86M2824.97 1446.86 2824.97 1473.85M2811.47 1473.85 2838.47 1446.86" stroke="#5B9BD5" stroke-width="3.4375" stroke-linecap="butt" stroke-linejoin="round" stroke-miterlimit="10" stroke-opacity="1" fill="none" fill-rule="nonzero"/><path d="M3191.47 1533.85 3164.47 1506.85M3177.97 1506.85 3177.97 1533.85M3164.47 1533.85 3191.47 1506.85" stroke="#5B9BD5" stroke-width="3.4375" stroke-linecap="butt" stroke-linejoin="round" stroke-miterlimit="10" stroke-opacity="1" fill="none" fill-rule="nonzero"/><path d="M3897.47 1591.85 3870.47 1564.85M3883.97 1564.85 3883.97 1591.85M3870.47 1591.85 3897.47 1564.85" stroke="#5B9BD5" stroke-width="3.4375" stroke-linecap="butt" stroke-linejoin="round" stroke-miterlimit="10" stroke-opacity="1" fill="none" fill-rule="nonzero"/></g><g clip-path="url(#clip15)"><text fill="#595959" fill-opacity="1" font-family="Calibri,Calibri_MSFontService,sans-serif" font-style="normal" font-variant="normal" font-weight="400" font-stretch="normal" font-size="41" text-anchor="start" direction="ltr" writing-mode="lr-tb" unicode-bidi="normal" text-decoration="none" transform="matrix(1 0 0 1 2360.5 2386)">0.01</text></g><g clip-path="url(#clip16)"><text fill="#595959" fill-opacity="1" font-family="Calibri,Calibri_MSFontService,sans-serif" font-style="normal" font-variant="normal" font-weight="400" font-stretch="normal" font-size="41" text-anchor="start" direction="ltr" writing-mode="lr-tb" unicode-bidi="normal" text-decoration="none" transform="matrix(1 0 0 1 2381.4 2181)">0.1</text></g><g clip-path="url(#clip17)"><text fill="#595959" fill-opacity="1" font-family="Calibri,Calibri_MSFontService,sans-serif" font-style="normal" font-variant="normal" font-weight="400" font-stretch="normal" font-size="41" text-anchor="start" direction="ltr" writing-mode="lr-tb" unicode-bidi="normal" text-decoration="none" transform="matrix(1 0 0 1 2412.7 1977)">1</text></g><g clip-path="url(#clip18)"><text fill="#595959" fill-opacity="1" font-family="Calibri,Calibri_MSFontService,sans-serif" font-style="normal" font-variant="normal" font-weight="400" font-stretch="normal" font-size="41" text-anchor="start" direction="ltr" writing-mode="lr-tb" unicode-bidi="normal" text-decoration="none" transform="matrix(1 0 0 1 2391.8 1772)">10</text></g><g clip-path="url(#clip19)"><text fill="#595959" fill-opacity="1" font-family="Calibri,Calibri_MSFontService,sans-serif" font-style="normal" font-variant="normal" font-weight="400" font-stretch="normal" font-size="41" text-anchor="start" direction="ltr" writing-mode="lr-tb" unicode-bidi="normal" text-decoration="none" transform="matrix(1 0 0 1 2370.9 1567)">100</text></g><g clip-path="url(#clip20)"><text fill="#595959" fill-opacity="1" font-family="Calibri,Calibri_MSFontService,sans-serif" font-style="normal" font-variant="normal" font-weight="400" font-stretch="normal" font-size="41" text-anchor="start" direction="ltr" writing-mode="lr-tb" unicode-bidi="normal" text-decoration="none" transform="matrix(1 0 0 1 2350 1363)">1000</text></g><g clip-path="url(#clip21)"><text fill="#595959" fill-opacity="1" font-family="Calibri,Calibri_MSFontService,sans-serif" font-style="normal" font-variant="normal" font-weight="400" font-stretch="normal" font-size="41" text-anchor="start" direction="ltr" writing-mode="lr-tb" unicode-bidi="normal" text-decoration="none" transform="matrix(1 0 0 1 2461.4 2031)">0</text></g><g clip-path="url(#clip22)"><text fill="#595959" fill-opacity="1" font-family="Calibri,Calibri_MSFontService,sans-serif" font-style="normal" font-variant="normal" font-weight="400" font-stretch="normal" font-size="41" text-anchor="start" direction="ltr" writing-mode="lr-tb" unicode-bidi="normal" text-decoration="none" transform="matrix(1 0 0 1 2637.8 2031)">1</text></g><g clip-path="url(#clip23)"><text fill="#595959" fill-opacity="1" font-family="Calibri,Calibri_MSFontService,sans-serif" font-style="normal" font-variant="normal" font-weight="400" font-stretch="normal" font-size="41" text-anchor="start" direction="ltr" writing-mode="lr-tb" unicode-bidi="normal" text-decoration="none" transform="matrix(1 0 0 1 2814.19 2031)">2</text></g><g clip-path="url(#clip24)"><text fill="#595959" fill-opacity="1" font-family="Calibri,Calibri_MSFontService,sans-serif" font-style="normal" font-variant="normal" font-weight="400" font-stretch="normal" font-size="41" text-anchor="start" direction="ltr" writing-mode="lr-tb" unicode-bidi="normal" text-decoration="none" transform="matrix(1 0 0 1 2990.59 2031)">3</text></g><g clip-path="url(#clip25)"><text fill="#595959" fill-opacity="1" font-family="Calibri,Calibri_MSFontService,sans-serif" font-style="normal" font-variant="normal" font-weight="400" font-stretch="normal" font-size="41" text-anchor="start" direction="ltr" writing-mode="lr-tb" unicode-bidi="normal" text-decoration="none" transform="matrix(1 0 0 1 3166.98 2031)">4</text></g><g clip-path="url(#clip26)"><text fill="#595959" fill-opacity="1" font-family="Calibri,Calibri_MSFontService,sans-serif" font-style="normal" font-variant="normal" font-weight="400" font-stretch="normal" font-size="41" text-anchor="start" direction="ltr" writing-mode="lr-tb" unicode-bidi="normal" text-decoration="none" transform="matrix(1 0 0 1 3343.38 2031)">5</text></g><g clip-path="url(#clip27)"><text fill="#595959" fill-opacity="1" font-family="Calibri,Calibri_MSFontService,sans-serif" font-style="normal" font-variant="normal" font-weight="400" font-stretch="normal" font-size="41" text-anchor="start" direction="ltr" writing-mode="lr-tb" unicode-bidi="normal" text-decoration="none" transform="matrix(1 0 0 1 3519.78 2031)">6</text></g><g clip-path="url(#clip28)"><text fill="#595959" fill-opacity="1" font-family="Calibri,Calibri_MSFontService,sans-serif" font-style="normal" font-variant="normal" font-weight="400" font-stretch="normal" font-size="41" text-anchor="start" direction="ltr" writing-mode="lr-tb" unicode-bidi="normal" text-decoration="none" transform="matrix(1 0 0 1 3696.17 2031)">7</text></g><g clip-path="url(#clip29)"><text fill="#595959" fill-opacity="1" font-family="Calibri,Calibri_MSFontService,sans-serif" font-style="normal" font-variant="normal" font-weight="400" font-stretch="normal" font-size="41" text-anchor="start" direction="ltr" writing-mode="lr-tb" unicode-bidi="normal" text-decoration="none" transform="matrix(1 0 0 1 3872.57 2031)">8</text></g><g clip-path="url(#clip30)"><text fill="#595959" fill-opacity="1" font-family="Calibri,Calibri_MSFontService,sans-serif" font-style="normal" font-variant="normal" font-weight="400" font-stretch="normal" font-size="41" text-anchor="start" direction="ltr" writing-mode="lr-tb" unicode-bidi="normal" text-decoration="none" transform="matrix(1 0 0 1 4048.96 2031)">9</text></g><g clip-path="url(#clip31)"><text fill="#595959" fill-opacity="1" font-family="Calibri,Calibri_MSFontService,sans-serif" font-style="normal" font-variant="normal" font-weight="400" font-stretch="normal" font-size="41" text-anchor="start" direction="ltr" writing-mode="lr-tb" unicode-bidi="normal" text-decoration="none" transform="matrix(6.12323e-17 -1 1 6.12323e-17 2366.35 1947)">LOG TIME</text></g><g clip-path="url(#clip32)"><text fill="#595959" fill-opacity="1" font-family="Calibri,Calibri_MSFontService,sans-serif" font-style="normal" font-variant="normal" font-weight="400" font-stretch="normal" font-size="41" text-anchor="start" direction="ltr" writing-mode="lr-tb" unicode-bidi="normal" text-decoration="none" transform="matrix(1 0 0 1 3130.93 2421)">THREAD COUNT</text></g><g clip-path="url(#clip33)"><text fill="#595959" fill-opacity="1" font-family="Calibri,Calibri_MSFontService,sans-serif" font-style="normal" font-variant="normal" font-weight="700" font-stretch="normal" font-size="73" text-anchor="start" direction="ltr" writing-mode="lr-tb" unicode-bidi="normal" text-decoration="none" transform="matrix(1 0 0 1 2856.73 1170)">TIME </text></g><g clip-path="url(#clip34)"><text fill="#595959" fill-opacity="1" font-family="Calibri,Calibri_MSFontService,sans-serif" font-style="normal" font-variant="normal" font-weight="700" font-stretch="normal" font-size="73" text-anchor="start" direction="ltr" writing-mode="lr-tb" unicode-bidi="normal" text-decoration="none" transform="matrix(1 0 0 1 3056.52 1170)">-</text></g><g clip-path="url(#clip35)"><text fill="#595959" fill-opacity="1" font-family="Calibri,Calibri_MSFontService,sans-serif" font-style="normal" font-variant="normal" font-weight="700" font-stretch="normal" font-size="73" text-anchor="start" direction="ltr" writing-mode="lr-tb" unicode-bidi="normal" text-decoration="none" transform="matrix(1 0 0 1 3106.55 1170)">THREAD PLOT</text></g><g clip-path="url(#clip36)"><path d="M2864 1263 2952 1263" stroke="#4472C4" stroke-width="8.02083" stroke-linecap="round" stroke-linejoin="round" stroke-miterlimit="10" stroke-opacity="1" fill="none" fill-rule="evenodd"/></g><g clip-path="url(#clip37)"><path d="M2908.5 1251.5 2919.5 1262.5 2908.5 1273.5 2897.5 1262.5Z" stroke="#4472C4" stroke-width="3.4375" stroke-linecap="butt" stroke-linejoin="round" stroke-miterlimit="10" stroke-opacity="1" fill="#4472C4" fill-rule="nonzero" fill-opacity="1"/></g><g clip-path="url(#clip38)"><text fill="#595959" fill-opacity="1" font-family="Calibri,Calibri_MSFontService,sans-serif" font-style="normal" font-variant="normal" font-weight="400" font-stretch="normal" font-size="41" text-anchor="start" direction="ltr" writing-mode="lr-tb" unicode-bidi="normal" text-decoration="none" transform="matrix(1 0 0 1 2961.64 1273)">12</text></g><g clip-path="url(#clip39)"><path d="M3041 1263 3129 1263" stroke="#ED7D31" stroke-width="8.02083" stroke-linecap="round" stroke-linejoin="round" stroke-miterlimit="10" stroke-opacity="1" fill="none" fill-rule="evenodd"/></g><g clip-path="url(#clip40)"><path d="M3074.6 1251.54 3096.6 1251.54 3096.6 1273.54 3074.6 1273.54Z" stroke="#ED7D31" stroke-width="3.4375" stroke-linecap="butt" stroke-linejoin="round" stroke-miterlimit="10" stroke-opacity="1" fill="#ED7D31" fill-rule="nonzero" fill-opacity="1"/></g><g clip-path="url(#clip41)"><text fill="#595959" fill-opacity="1" font-family="Calibri,Calibri_MSFontService,sans-serif" font-style="normal" font-variant="normal" font-weight="400" font-stretch="normal" font-size="41" text-anchor="start" direction="ltr" writing-mode="lr-tb" unicode-bidi="normal" text-decoration="none" transform="matrix(1 0 0 1 3138.74 1273)">16</text></g><g clip-path="url(#clip42)"><path d="M3219 1263 3307 1263" stroke="#A5A5A5" stroke-width="8.02083" stroke-linecap="round" stroke-linejoin="round" stroke-miterlimit="10" stroke-opacity="1" fill="none" fill-rule="evenodd"/></g><g clip-path="url(#clip43)"><path d="M3262.5 1251.5 3273.5 1273.5 3251.5 1273.5Z" stroke="#A5A5A5" stroke-width="3.4375" stroke-linecap="butt" stroke-linejoin="round" stroke-miterlimit="10" stroke-opacity="1" fill="#A5A5A5" fill-rule="nonzero" fill-opacity="1"/></g><g clip-path="url(#clip44)"><text fill="#595959" fill-opacity="1" font-family="Calibri,Calibri_MSFontService,sans-serif" font-style="normal" font-variant="normal" font-weight="400" font-stretch="normal" font-size="41" text-anchor="start" direction="ltr" writing-mode="lr-tb" unicode-bidi="normal" text-decoration="none" transform="matrix(1 0 0 1 3315.84 1273)">20</text></g><g clip-path="url(#clip45)"><path d="M3396 1263 3484 1263" stroke="#FFC000" stroke-width="8.02083" stroke-linecap="round" stroke-linejoin="round" stroke-miterlimit="10" stroke-opacity="1" fill="none" fill-rule="evenodd"/></g><g clip-path="url(#clip46)"><path d="M3450.5 1273.5 3427.5 1250.5M3427.5 1273.5 3450.5 1250.5" stroke="#FFC000" stroke-width="3.4375" stroke-linecap="butt" stroke-linejoin="round" stroke-miterlimit="10" stroke-opacity="1" fill="none" fill-rule="nonzero"/></g><g clip-path="url(#clip47)"><text fill="#595959" fill-opacity="1" font-family="Calibri,Calibri_MSFontService,sans-serif" font-style="normal" font-variant="normal" font-weight="400" font-stretch="normal" font-size="41" text-anchor="start" direction="ltr" writing-mode="lr-tb" unicode-bidi="normal" text-decoration="none" transform="matrix(1 0 0 1 3492.94 1273)">24</text></g><g clip-path="url(#clip48)"><path d="M3573 1263 3661 1263" stroke="#5B9BD5" stroke-width="8.02083" stroke-linecap="round" stroke-linejoin="round" stroke-miterlimit="10" stroke-opacity="1" fill="none" fill-rule="evenodd"/></g><g clip-path="url(#clip49)"><path d="M3627.5 1273.5 3604.5 1250.5M3616.62 1250.5 3616.62 1273.5M3604.5 1273.5 3627.5 1250.5" stroke="#5B9BD5" stroke-width="3.4375" stroke-linecap="butt" stroke-linejoin="round" stroke-miterlimit="10" stroke-opacity="1" fill="none" fill-rule="nonzero"/></g><g clip-path="url(#clip50)"><text fill="#595959" fill-opacity="1" font-family="Calibri,Calibri_MSFontService,sans-serif" font-style="normal" font-variant="normal" font-weight="400" font-stretch="normal" font-size="41" text-anchor="start" direction="ltr" writing-mode="lr-tb" unicode-bidi="normal" text-decoration="none" transform="matrix(1 0 0 1 3670.04 1273)">28</text></g><rect x="2320.5" y="1066.5" width="1920" height="1424" stroke="#D9D9D9" stroke-width="3.4375" stroke-linecap="butt" stroke-linejoin="round" stroke-miterlimit="10" stroke-opacity="1" fill="none"/></g></svg>